<?xml version="1.0" encoding="iso-8859-1"?>
<!-- Generator: Adobe Illustrator 19.0.0, SVG Export Plug-In . SVG Version: 6.00 Build 0)  -->
<svg version="1.1" id="Layer_1" xmlns="http://www.w3.org/2000/svg" xmlns:xlink="http://www.w3.org/1999/xlink" x="0px" y="0px"
	 viewBox="0 0 496.159 496.159" style="enable-background:new 0 0 496.159 496.159;" xml:space="preserve">
<path style="fill:#EDC92F;" d="M248.083,0.003C111.071,0.003,0,111.063,0,248.085c0,137.001,111.07,248.07,248.083,248.07
	c137.006,0,248.076-111.069,248.076-248.07C496.159,111.062,385.089,0.003,248.083,0.003z"/>
<path style="fill:#EFEEE4;" d="M298.379,274.588l-18.122-45.905c-10.712-1.327-54.672-1.299-65.38,0.043l12.368,49.79l24.449,48.423
	l-25.519,48.104l59.519-0.074l35.455-74.576L298.379,274.588z"/>
<g>
	<polygon style="fill:#E2E1D9;" points="279.194,264.886 280.257,228.683 268.694,270.386 295.694,281.886 	"/>
	<polygon style="fill:#E2E1D9;" points="275.194,359.386 285.694,374.969 293.444,358.636 	"/>
	<path style="fill:#E2E1D9;" d="M288.462,305.228l-39.222-22.106l-0.713-31.377c0,0-28.621-23.648-33.65-23.018l25.806,25.157
		l-13.438,24.632l49.807,37.409l-50.877,59.118l65.139-54.839l29.835-19.812L288.462,305.228z"/>
</g>
<rect x="214.82" y="50.399" style="fill:#E79E2F;" width="65.38" height="179.46"/>
<polygon style="fill:#D88D2B;" points="214.756,50.42 214.878,229.875 280.259,229.83 "/>
<polygon style="fill:#CC8127;" points="214.756,50.42 214.878,229.875 241.396,229.83 "/>
<ellipse style="fill:#EDD48E;" cx="247.49" cy="50.379" rx="32.653" ry="9.895"/>
<ellipse style="fill:#E8CB70;" cx="247.49" cy="50.379" rx="20.887" ry="6.329"/>
<g>
	<circle style="fill:#E5AA5C;" cx="272.78" cy="218.629" r="3.686"/>
	<circle style="fill:#E5AA5C;" cx="255.64" cy="218.639" r="3.685"/>
	<circle style="fill:#E5AA5C;" cx="238.51" cy="218.649" r="3.686"/>
	<circle style="fill:#E5AA5C;" cx="221.37" cy="218.669" r="3.685"/>
	<circle style="fill:#E5AA5C;" cx="272.76" cy="186.879" r="3.686"/>
	<circle style="fill:#E5AA5C;" cx="255.62" cy="186.899" r="3.685"/>
	<circle style="fill:#E5AA5C;" cx="238.49" cy="186.909" r="3.685"/>
	<circle style="fill:#E5AA5C;" cx="221.35" cy="186.919" r="3.685"/>
	<circle style="fill:#E5AA5C;" cx="272.74" cy="155.139" r="3.686"/>
	<circle style="fill:#E5AA5C;" cx="255.6" cy="155.149" r="3.685"/>
	<circle style="fill:#E5AA5C;" cx="238.46" cy="155.159" r="3.686"/>
	<circle style="fill:#E5AA5C;" cx="221.33" cy="155.169" r="3.685"/>
	<circle style="fill:#E5AA5C;" cx="264.41" cy="202.969" r="3.685"/>
	<circle style="fill:#E5AA5C;" cx="247.27" cy="202.979" r="3.685"/>
	<circle style="fill:#E5AA5C;" cx="230.14" cy="202.999" r="3.685"/>
	<circle style="fill:#E5AA5C;" cx="264.39" cy="171.229" r="3.686"/>
	<circle style="fill:#E5AA5C;" cx="247.25" cy="171.239" r="3.686"/>
	<path style="fill:#E5AA5C;" d="M230.111,167.563c-2.036,0.002-3.684,1.653-3.683,3.689c0.001,2.035,1.653,3.683,3.687,3.682
		c2.035-0.001,3.686-1.651,3.683-3.689C233.798,169.213,232.147,167.561,230.111,167.563z"/>
	<circle style="fill:#E5AA5C;" cx="272.72" cy="123.809" r="3.685"/>
	<circle style="fill:#E5AA5C;" cx="255.58" cy="123.819" r="3.685"/>
	<circle style="fill:#E5AA5C;" cx="238.44" cy="123.829" r="3.685"/>
	<circle style="fill:#E5AA5C;" cx="221.31" cy="123.839" r="3.686"/>
	<circle style="fill:#E5AA5C;" cx="272.7" cy="92.059" r="3.685"/>
	<circle style="fill:#E5AA5C;" cx="255.56" cy="92.069" r="3.685"/>
	<circle style="fill:#E5AA5C;" cx="238.42" cy="92.079" r="3.686"/>
	<circle style="fill:#E5AA5C;" cx="221.29" cy="92.099" r="3.685"/>
	<circle style="fill:#E5AA5C;" cx="264.36" cy="139.889" r="3.686"/>
	<circle style="fill:#E5AA5C;" cx="247.23" cy="139.909" r="3.686"/>
	<circle style="fill:#E5AA5C;" cx="230.09" cy="139.919" r="3.686"/>
	<circle style="fill:#E5AA5C;" cx="264.34" cy="108.149" r="3.685"/>
	<circle style="fill:#E5AA5C;" cx="247.21" cy="108.159" r="3.685"/>
	<circle style="fill:#E5AA5C;" cx="230.07" cy="108.169" r="3.686"/>
	<circle style="fill:#E5AA5C;" cx="264.32" cy="77.006" r="3.685"/>
	<circle style="fill:#E5AA5C;" cx="247.18" cy="77.018" r="3.686"/>
	<circle style="fill:#E5AA5C;" cx="230.05" cy="77.029" r="3.685"/>
</g>
<polygon style="fill:#9FA09F;" points="225.582,374.969 225.582,384.957 229.945,391.259 237.217,389.32 244.004,393.86 
	257.579,390.128 264.365,382.695 277.938,392.391 285.694,393.86 285.694,374.969 "/>
<polygon style="fill:#888988;" points="258.7,374.969 248.46,374.969 227.979,384.559 232.168,390.609 254.511,384.559 
	258.7,389.523 265.216,382.386 278.247,391.696 285.694,393.106 "/>
<polygon style="fill:#9FA09F;" points="308.934,407.47 298.847,403.522 293.302,406.124 295.336,427.869 305.422,429.323 
	314.95,420.026 "/>
<polygon style="fill:#888988;" points="307.28,408.11 293.302,406.124 287.284,420.868 295.336,427.869 308.097,423.752 
	314.95,420.026 "/>
<polygon style="fill:#9FA09F;" points="194.557,416.88 188.338,414.447 184.92,416.052 186.174,429.456 192.391,430.352 
	198.265,424.621 "/>
<polygon style="fill:#888988;" points="193.538,417.275 184.92,416.052 181.21,425.14 186.174,429.456 194.04,426.918 
	198.265,424.621 "/>
<polygon style="fill:#9FA09F;" points="218.777,419.548 209.908,416.077 205.033,418.367 206.821,437.485 215.688,438.763 
	224.066,430.588 "/>
<polygon style="fill:#888988;" points="217.323,420.111 205.033,418.367 199.74,431.329 206.821,437.485 218.039,433.865 
	224.066,430.588 "/>
<polygon style="fill:#9FA09F;" points="236.442,411.353 230.225,408.92 226.807,410.524 228.06,423.929 234.277,424.825 
	240.151,419.094 "/>
<polygon style="fill:#888988;" points="235.424,411.747 226.807,410.524 223.095,419.613 228.06,423.929 235.925,421.392 
	240.151,419.094 "/>
<polygon style="fill:#9FA09F;" points="249.413,428.303 240.312,424.742 235.308,427.091 237.143,446.712 246.244,448.024 
	254.843,439.635 "/>
<polygon style="fill:#888988;" points="247.921,428.881 235.308,427.091 229.876,440.394 237.143,446.712 248.657,442.997 
	254.843,439.635 "/>
<polygon style="fill:#9FA09F;" points="266.955,415.873 260.738,413.44 257.32,415.045 258.573,428.45 264.79,429.346 
	270.664,423.615 "/>
<polygon style="fill:#888988;" points="265.936,416.269 257.32,415.045 253.609,424.134 258.573,428.45 266.438,425.912 
	270.664,423.615 "/>
<polygon style="fill:#9FA09F;" points="286.046,428.796 279.534,426.248 275.953,427.929 277.268,441.968 283.779,442.908 
	289.931,436.904 "/>
<polygon style="fill:#888988;" points="284.98,429.21 275.953,427.929 272.067,437.448 277.268,441.968 285.505,439.311 
	289.931,436.904 "/>
<g>
</g>
<g>
</g>
<g>
</g>
<g>
</g>
<g>
</g>
<g>
</g>
<g>
</g>
<g>
</g>
<g>
</g>
<g>
</g>
<g>
</g>
<g>
</g>
<g>
</g>
<g>
</g>
<g>
</g>
</svg>
