<?xml version="1.0" encoding="iso-8859-1"?>
<!-- Generator: Adobe Illustrator 19.0.0, SVG Export Plug-In . SVG Version: 6.00 Build 0)  -->
<svg version="1.1" id="Layer_1" xmlns="http://www.w3.org/2000/svg" xmlns:xlink="http://www.w3.org/1999/xlink" x="0px" y="0px"
	 viewBox="0 0 512 512" style="enable-background:new 0 0 512 512;" xml:space="preserve">
<rect x="55.12" y="318.658" style="fill:#BA7400;" width="30" height="105.77"/>
<rect x="70.12" y="318.658" style="fill:#804D00;" width="15" height="105.77"/>
<path style="fill:#FBDA35;" d="M100.9,203.048c-5.8-17.867-22.914-32.261-39.459-38.852c2.08,25.239-24.131,29.759-24.131,55.371
	c0,23.353,15.149,31.122,15.3,31.233l33.807,0.616C101.17,236.031,106.177,219.305,100.9,203.048z"/>
<g>
	<path style="fill:#F7BA35;" d="M100.9,203.048c-4.784-14.737-17.265-27.105-30.775-34.687v82.759l16.292,0.297
		C101.17,236.031,106.177,219.305,100.9,203.048z"/>
	<polygon style="fill:#F7BA35;" points="377.583,99.13 356.37,77.916 343.443,90.843 343.443,72.563 313.443,72.563 313.443,90.843 
		300.517,77.916 279.304,99.13 317.837,137.662 328.443,127.055 339.05,137.662 	"/>
</g>
<polygon style="fill:#FD9702;" points="377.583,99.13 356.37,77.916 343.443,90.843 343.443,72.563 328.435,72.563 328.443,127.055 
	339.05,137.662 "/>
<polygon style="fill:#FF7F4B;" points="27.264,243.13 32.985,333.419 107.265,333.419 112.986,243.13 "/>
<g>
	<polygon style="fill:#FD5219;" points="70.125,243.13 70.125,333.419 107.265,333.419 112.986,243.13 	"/>
	<rect x="16.875" y="274.728" style="fill:#FD5219;" width="106.5" height="30"/>
</g>
<rect x="70.12" y="274.728" style="fill:#BB3E13;" width="53.25" height="30"/>
<rect x="187.02" y="206.947" style="fill:#BA7400;" width="282.84" height="213.95"/>
<g>
	<rect x="328.44" y="206.947" style="fill:#804D00;" width="141.43" height="213.95"/>
	<path style="fill:#804D00;" d="M363.388,420.898h-69.89V348.93c0-19.3,15.645-34.945,34.945-34.945l0,0
		c19.3,0,34.945,15.645,34.945,34.945V420.898z"/>
</g>
<path style="fill:#4C3011;" d="M363.388,420.898h-34.953c0,0,0.008-80.338,0.008-106.914l0,0c19.3,0,34.945,15.645,34.945,34.945
	V420.898z"/>
<path style="fill:#FD9702;" d="M512,243.285c0,0-78.624-93.94-183.557-125.39c-104.933,31.45-183.557,125.39-183.557,125.39
	c22.943,0,22.943,16.542,45.887,16.542s22.944-16.542,45.889-16.542c22.943,0,22.943,16.542,45.886,16.542
	c22.944,0,22.944-16.542,45.887-16.542c22.945,0,22.945,16.542,45.889,16.542s22.944-16.542,45.888-16.542
	c22.947,0,22.947,16.542,45.894,16.542S489.053,243.285,512,243.285z"/>
<path style="fill:#BA7400;" d="M512,243.285c0,0-78.624-93.94-183.557-125.39c0,36.7-0.008,75.462-0.008,125.39
	c22.945,0,22.945,16.542,45.889,16.542s22.944-16.542,45.888-16.542c22.947,0,22.947,16.542,45.894,16.542
	C489.053,259.827,489.053,243.285,512,243.285z"/>
<rect y="409.438" style="fill:#C3EA21;" width="512" height="30"/>
<rect x="256" y="409.438" style="fill:#8ADB53;" width="256" height="30"/>
<g>
</g>
<g>
</g>
<g>
</g>
<g>
</g>
<g>
</g>
<g>
</g>
<g>
</g>
<g>
</g>
<g>
</g>
<g>
</g>
<g>
</g>
<g>
</g>
<g>
</g>
<g>
</g>
<g>
</g>
</svg>
