<?xml version="1.0" encoding="iso-8859-1"?>
<!-- Generator: Adobe Illustrator 19.0.0, SVG Export Plug-In . SVG Version: 6.00 Build 0)  -->
<svg version="1.1" id="Capa_1" xmlns="http://www.w3.org/2000/svg" xmlns:xlink="http://www.w3.org/1999/xlink" x="0px" y="0px"
	 viewBox="0 0 512 512" style="enable-background:new 0 0 512 512;" xml:space="preserve">
<rect x="411.67" y="211" style="fill:#4F575B;" width="30" height="45"/>
<rect x="70.33" y="211" style="fill:#819398;" width="30" height="45"/>
<polygon style="fill:#FF4437;" points="271,0 256,0 246,60 271,60 "/>
<rect x="241" style="fill:#FF6737;" width="15" height="60"/>
<polygon style="fill:#C9D3D6;" points="193.759,106 0,138.293 0,226 256,226 256,106 "/>
<polygon style="fill:#ADBDC2;" points="512,138.293 318.241,106 256,106 256,226 512,226 "/>
<path style="fill:#92A7AD;" d="M256,45l-30,98l30,98c41.906,0,76-34.094,76-76v-44C332,79.094,297.906,45,256,45z"/>
<path style="fill:#ADBDC2;" d="M180,121v44c0,41.906,34.094,76,76,76V45C214.094,45,180,79.094,180,121z"/>
<polygon style="fill:#012631;" points="301,106 256,106 246,121 256,136 301,136 "/>
<rect x="211" y="106" style="fill:#4F575B;" width="45" height="30"/>
<polygon style="fill:#012631;" points="286,286 236,329 236,469 286,512 341.333,512 356.333,454 371.333,512 426.667,512 
	441.667,454 456.667,512 512,512 512,286 "/>
<polygon style="fill:#4F575B;" points="256,469 256,329 226,286 0,286 0,512 55.333,512 70.333,454 85.333,512 140.667,512 
	155.667,454 170.667,512 226,512 "/>
<polygon style="fill:#AAEFFD;" points="286,384 286,286 256,286 231,335 256,384 "/>
<g>
	<rect x="140.67" y="414" style="fill:#E4E9EB;" width="30" height="98"/>
	<rect x="55.33" y="414" style="fill:#E4E9EB;" width="30" height="98"/>
</g>
<g>
	<rect x="341.33" y="414" style="fill:#AAEFFD;" width="30" height="98"/>
	<rect x="426.67" y="414" style="fill:#AAEFFD;" width="30" height="98"/>
</g>
<rect x="226" y="286" style="fill:#E4E9EB;" width="30" height="98"/>
<polygon style="fill:#AAEFFD;" points="286,512 286,414 256,414 231,463 256,512 "/>
<rect x="226" y="414" style="fill:#E4E9EB;" width="30" height="98"/>
<g>
</g>
<g>
</g>
<g>
</g>
<g>
</g>
<g>
</g>
<g>
</g>
<g>
</g>
<g>
</g>
<g>
</g>
<g>
</g>
<g>
</g>
<g>
</g>
<g>
</g>
<g>
</g>
<g>
</g>
</svg>
