<?xml version="1.0" encoding="iso-8859-1"?>
<!-- Generator: Adobe Illustrator 19.0.0, SVG Export Plug-In . SVG Version: 6.00 Build 0)  -->
<svg version="1.1" id="Layer_1" xmlns="http://www.w3.org/2000/svg" xmlns:xlink="http://www.w3.org/1999/xlink" x="0px" y="0px"
	 viewBox="0 0 512 512" style="enable-background:new 0 0 512 512;" xml:space="preserve">
<path style="fill:#D9D9D9;" d="M256,512c-97.3,0-180.2-61.6-211.9-148C81.4,443.7,162.2,499,256,499s174.6-55.2,211.9-134.9
	C436.2,450.4,353.3,512,256,512z"/>
<path style="fill:#F8F6DE;" d="M506.6,250.6c0,138.4-112.2,250.6-250.6,250.6l0,0C117.6,501.2,5.4,389,5.4,250.6S117.6,0,256,0
	S506.6,112.2,506.6,250.6L506.6,250.6z"/>
<path style="fill:#EDD490;" d="M490.9,250.6c0,129.7-105.1,234.9-234.9,234.9S21.1,380.3,21.1,250.6S126.3,15.8,256,15.8l0,0
	C385.7,15.8,490.9,120.9,490.9,250.6L490.9,250.6z"/>
<path style="fill:#9ADBB6;" d="M256,15.8c-129.7,0-234.9,105.1-234.9,234.8h469.8C490.9,120.9,385.7,15.8,256,15.8z"/>
<path style="fill:#FCD116;" d="M365.2,42.5c-4.1,1.5-7.9,3.7-11.1,6.5c-0.2,0.2-0.1,0.1-0.2,0.2c-7.9,6.6-12.5,16.4-12.5,27.1
	c0,5.3,1.2,10.4,3.3,15c0.7,1.5,2.7,4.4,4.2,6.5c1.6,2.3,3.5,4.4,5.7,6.2c6.2,5.1,14.2,8.3,22.8,8.3c16.8,0,35.8-13.3,35.8-36
	c0-0.1,0-0.1,0-0.2C398.6,62.9,382.5,51.7,365.2,42.5z"/>
<path style="fill:#D2B51E;" d="M413.2,76.3L413.2,76.3c0-0.1,0-0.1,0-0.2c-14.6-13.2-30.7-24.4-48-33.6c-4.1,1.5-7.9,3.7-11.1,6.5
	c21.2,9.3,40.7,21.4,58.1,36C412.8,82.2,413.2,79.3,413.2,76.3z"/>
<g>
	<path style="fill:#FFFFFF;" d="M356.9,102.3l20.7-12.8C367.5,90.2,359,95.5,356.9,102.3z"/>
	<path style="fill:#FFFFFF;" d="M360.7,93.6c-3,0.2-5.9,0.8-8.6,1.8c-2.1-1.8-4.7-3.2-7.5-4.2c-2.6-0.9-5.5-1.5-8.4-1.7l11.5,7.1
		l0.8,0.5c-0.1,0.1-0.2,0.1-0.3,0.2c-4.2,2.4-7.1,5.6-8.1,9.2c-2-6.9-10.5-12.1-20.7-12.8l20.7,12.8l0,0l0,0l0,0l0,0l10.3-6.4
		l1.4-0.9l5.1,3.1c-0.5-1.6-1.3-3.2-2.6-4.7L360.7,93.6z"/>
</g>
<path style="fill:#487B74;" d="M283.1,225l-12.3-51.4l-9.9,40.6l-25.8-108.1l-21.9,89l-9.6-40.1l-6.6,26.8
	c-7.8-19.6-19.2-32-31.8-32c-9.1,0-17.6,6.5-24.6,17.5c-7.8-23.3-20.2-38.4-34.1-38.4c-6.5,0-13,3.5-18.8,10
	c-0.5-14.3-1.5-28-2.8-40.8c-0.1-0.6-0.5-4.6-0.7-7.5c-13.6,14.5-25.1,30.6-34.5,47.8c0.2,0.8,0.5,1.6,0.8,2.5l0,0
	c0.9,2.7,0.8,8.8,1.6,11.7c2.8-7.2,6.6-12.1,9.8-12.1c9.2,0,15.4,33.9,17.1,74.7c3.9-3.8,9.4-7.5,14-7.5c9.5,0,17.9,6.9,23.2,21.1
	c4.7-6.7,11.2-10.8,17.4-10.8s10.9,5.4,15.6,12.1l1.3-4l2.2,6.6c0.7,1.3,1.5,6.3,2.1,7.7l4.9-16.7l6.3,27.6l14.6-54.4l16.8,57.3
	l1.5-0.2l5.8-20.7L210,255l100.3-17l2.8-7.9L283.1,225z"/>
<path style="fill:#46766F;" d="M84.9,98c-0.3-2.5-0.5-4.9-0.7-7.5c-13.6,14.5-25.1,30.6-34.5,47.8c0.2,0.9,0.5,1.6,0.8,2.5
	C60.3,125.3,71.7,111,84.9,98z"/>
<path style="fill:#83A6A4;" d="M491.3,241.2c-0.3-10.2-1.8-21.1-3.7-31.1c-2.3-12.1-5.1-23.9-9-35.6c-4-11.7-8.8-23-14.6-33.9
	c-1.7-3.2-3.4-6.3-5.2-9.4c-0.9-1.5-1.8-3.1-2.8-4.6c-0.5-0.8-1-1.6-1.5-2.4c-0.3-0.5-1.1-1.8-1.4-2.2c0,0.1-1.1,2.9-1.6,4.2
	c-4.5,13-7.7,34.4-8.6,58.3c-3.9-3.8-8.2-6-12.8-6c-9.5,0-17.9,9.2-23.2,23.4c-4.7-6.7-10.5-10.7-16.7-10.7
	c-8.6,0-16.3,7.5-21.6,19.5l-4.5-16.3l-6.5,24.4l-14.8-54.2l-17.6,65.8l-6.8-24.7l-6.3,23.5L310,237l-100,15.5l0.5,2l280.4,0.7
	C491.1,255.4,491.5,246.3,491.3,241.2z"/>
<path style="fill:#7B9A98;" d="M453.1,122.8c-0.5,1.3-1.1,2.8-1.6,4.2c8.4,11.5,16.1,23.7,22.6,36.4
	C468.7,149.4,461.2,135.5,453.1,122.8z"/>
<path style="fill:#193D3A;" d="M224.6,253.8h-13.8l-6-22.6l-6.1,22.4h-1.2l-16.9-63.5l-14.8,54.2l-6.5-24.4l-4.5,16.3
	c-0.6-1.4-4.4-10.9-4.4-10.9l-0.9,1.5c-4.7-6.7-10.1-10.3-16.3-10.3s-12,4-16.7,10.7c-5.3-14.2-13.7-23.4-23.2-23.4
	c-4.6,0-8.9,2.2-12.8,6c-1.6-40.8-9.3-71.6-18.5-71.6c-3.2,0-6.3,3.8-9.1,10.9c-0.7-2.9-1.5-5.8-2.4-8.4l-0.8-2.5
	c-6.3,12-11,22.6-14.5,31.9c-0.1,0.2-0.2,0.5-0.3,0.7c-0.1,0.3-0.2,0.6-0.3,1c-5.4,14.7-7.8,25.3-8.8,30.9c-0.5,2.5-1,4.4-1,4.4
	c0.1,0,0.3,0,0.4,0c0,0,0,0,0-0.1c11.4,0.4,19.2,16.1,25.2,28.7c2.6-2.8,7.7-1.3,10.8-1.3c10.2,0,17.1,15.8,19,38
	c3.9-2.1,9.9,2.7,14.5,2.7c8.9,0,12.5,1.1,17.8,8l4.2,31.2h45l4.8-20.2l3.6-12.5l8.1,5.8l10.2,9.5c61.3,0,72.6-3.3,134.1-3.3
	l11.9-15.9l155.2-2.2c0.7-7,1.5-13.8,1.6-20.8c0-0.3,0-0.7,0-1H224.6V253.8z"/>
<path style="fill:#153330;" d="M49.7,138.3c-21.1,38.2-24.6,69-24.6,69c6.4-33.7,25.3-66.5,25.3-66.5L49.7,138.3z"/>
<path style="fill:#21663C;" d="M284.9,338l37.4-46.8c-61.5,0-72.6-0.2-133.9-0.2l-10.8-30.4l-7.5,21l-19.6-58.1l-16.8,48.2
	l-7.4-20.8l-8.2,22.8c-5.3-8.3-14-13.7-23.8-13.7c-4.6,0-9,1.2-12.8,3.3c-1.8-22.2-10.3-39-20.6-39c-3.1,0-6,1.6-8.7,4.3
	c-6-12.5-15.9-20.9-27.3-21.4c-2.5-0.1-4.2,40.5-4.2,44.7c0.1,15.4,1.8,30.7,4.7,45.8c0.8,4.3,6.1,25.3,12.3,40.3
	C37.9,338,284.9,338,284.9,338z"/>
<g>
	<path style="fill:#3D527E;" d="M334.4,275l-49.5,63h38v-18.6c0-3.9,4.6-7.1,10.3-7.1s10.3,3.2,10.3,7.1V338h36.7l40.2-63H334.4z"/>
</g>
<path style="fill:#446095;" d="M380.2,338l-28.9-39.3L334.4,275l-49.5,63h38l0,0h20.6C345,338,380.2,338,380.2,338z"/>
<path style="fill:#2E0907;" d="M343.5,338v-18.6c0-3.9-4.6-7.1-10.3-7.1c-5.7,0-10.3,3.2-10.3,7.1V338
	C323.6,338,340.7,338,343.5,338z"/>
<path style="fill:#CB393B;" d="M489.5,275h-67.4h-1.7l0,0l0,0l-40.2,63c0,0,29.7,0,30.8,0v-18.7c0-3.9,4.6-7.1,10.3-7.1
	c5.7,0,10.3,3.2,10.3,7.1V338c1.6,0,32.2,0,32.2,0h0.4h9.9c5-12.4,8.9-25.3,11.7-38.3c0-0.2,0.1-0.4,0.1-0.6c0.4-1.7,0.7-3.4,1-5.1
	v-0.1c1.2-6,1.8-9.6,2.7-18.9H489.5z"/>
<path style="fill:#F73E3E;" d="M463.8,338l-43.4-63l-40.2,63c0,0,29.7,0,30.8,0h20.6C433.2,338,463.8,338,463.8,338z"/>
<path style="fill:#2E0907;" d="M431.6,338v-18.6c0-3.9-4.6-7.1-10.3-7.1c-5.7,0-10.3,3.2-10.3,7.1V338
	C411,338.2,429.6,338,431.6,338z"/>
<g>
</g>
<g>
</g>
<g>
</g>
<g>
</g>
<g>
</g>
<g>
</g>
<g>
</g>
<g>
</g>
<g>
</g>
<g>
</g>
<g>
</g>
<g>
</g>
<g>
</g>
<g>
</g>
<g>
</g>
</svg>
